<?xml version="1.0" encoding="UTF-8" standalone="no"?>
<svg
   xmlns:dc="http://purl.org/dc/elements/1.1/"
   xmlns:cc="http://creativecommons.org/ns#"
   xmlns:rdf="http://www.w3.org/1999/02/22-rdf-syntax-ns#"
   xmlns:svg="http://www.w3.org/2000/svg"
   xmlns="http://www.w3.org/2000/svg"
   xml:space="preserve"
   viewBox="0 0 448.978 516.3247"
   y="0px"
   x="0px"
   height="115"
   width="100"
   id="Capa_1"
   version="1.1"><metadata
     id="metadata4014"><rdf:RDF><cc:Work
         rdf:about=""><dc:format>image/svg+xml</dc:format><dc:type
           rdf:resource="http://purl.org/dc/dcmitype/StillImage" /><dc:title></dc:title></cc:Work></rdf:RDF></metadata><defs
     id="defs4012" /><text
     transform="scale(1.0619048,0.94170396)"
     style="font-size:62.61761856px;fill:#000000"
     id="text3957"
     font-size="35"
     y="61.610878"
     x="6.8444757">Crawler</text>
<g
     transform="translate(0,67.3467)"
     id="g3959"><g
       id="XMLID_40_"><g
         id="g3962"><path
           id="path3964"
           d="m 260.062,133.848 c 7.21,0 13.08,5.86 13.08,13.07 0,7.21 -5.87,13.07 -13.08,13.07 -7.21,0 -13.07,-5.86 -13.07,-13.07 0,-7.21 5.86,-13.07 13.07,-13.07 z"
           style="fill:#e5d665" /><path
           id="path3966"
           d="m 188.912,133.848 c 7.21,0 13.08,5.86 13.08,13.07 0,7.21 -5.87,13.07 -13.08,13.07 -7.21,0 -13.07,-5.86 -13.07,-13.07 0,-7.21 5.86,-13.07 13.07,-13.07 z"
           style="fill:#e5d665" /><path
           id="path3968"
           d="m 299.072,58.558 c -0.43,0.27 -0.85,0.54 -1.26,0.81 -3.54,2.29 -5.88,3.8 -11.41,3.8 -5.53,0 -7.87,-1.51 -11.42,-3.8 -4.27,-2.77 -9.59,-6.2 -19.55,-6.2 -9.95,0 -15.27,3.44 -19.55,6.2 -3.54,2.29 -5.88,3.8 -11.41,3.8 -5.52,0 -7.86,-1.51 -11.4,-3.8 -4.28,-2.76 -9.6,-6.2 -19.55,-6.2 -9.96,0 -15.28,3.43 -19.55,6.2 -3.55,2.29 -5.89,3.8 -11.42,3.8 -5.53,0 -7.87,-1.51 -11.41,-3.8 -0.4,-0.26 -0.82,-0.53 -1.24,-0.8 15.06,-25.54 42.85,-42.71 74.59,-42.71 31.73,0 59.52,17.17 74.58,42.7 z"
           style="fill:#77ce6f" /><path
           id="path3970"
           d="m 351.752,266.568 0,23.38 c 0,11.88 -4.7,23 -13.22,31.33 -8.53,8.32 -19.78,12.76 -31.65,12.47 -23.57,-0.56 -42.75,-20.64 -42.75,-44.76 l 0,-71.32 c 0,-4.14 -3.35,-7.5 -7.5,-7.5 -4.14,0 -7.5,3.36 -7.5,7.5 l 0,171.09 c 0,14.55 11.13,26.49 25.33,27.18 7.38,0.36 14.37,-2.24 19.71,-7.32 5.26,-5.02 8.28,-12.05 8.28,-19.31 l 0,-10.59 c 0,-4.94 3.77,-9.02 8.42,-9.1 2.34,-0.03 4.51,0.82 6.16,2.45 1.66,1.62 2.57,3.79 2.57,6.11 l 0,10.17 c 0,24.12 -19.18,44.2 -42.75,44.76 -11.89,0.28 -23.13,-4.15 -31.64,-12.47 -8.53,-8.32 -13.22,-19.45 -13.22,-31.33 l 0,-162.3 c 0,-4.14 -3.36,-7.5 -7.5,-7.5 -4.15,0 -7.5,3.36 -7.5,7.5 l 0,161.37 c -0.02,24.1 -19.19,44.16 -42.75,44.72 -11.88,0.27 -23.13,-4.14 -31.65,-12.46 -8.52,-8.33 -13.22,-19.45 -13.22,-31.33 l 0,-10.6 c 0,-4.93 3.77,-9.02 8.41,-9.1 2.32,-0.03 4.52,0.83 6.18,2.46 1.65,1.62 2.56,3.79 2.56,6.1 l 0,10.59 c 0,14.54 11.13,26.48 25.33,27.17 7.37,0.37 14.37,-2.24 19.71,-7.32 5.26,-5.01 8.28,-12.05 8.28,-19.3 l 0,-171.64 c 0,-4.14 -3.36,-7.5 -7.5,-7.5 -4.14,0 -7.5,3.36 -7.5,7.5 l 0,72.28 c 0,11.88 -4.7,23 -13.22,31.33 -8.52,8.32 -19.76,12.77 -31.65,12.47 -23.57,-0.56 -42.74,-20.64 -42.74,-44.76 l 0,-22.95 c 0,-2.32 0.91,-4.5 2.57,-6.12 1.66,-1.63 3.84,-2.5 6.17,-2.46 4.63,0.09 8.4,4.18 8.4,9.11 l 0,23.38 c 0,7.26 3.02,14.29 8.28,19.3 5.34,5.09 12.33,7.68 19.7,7.33 14.21,-0.69 25.34,-12.63 25.34,-27.18 l 0,-60.89 c 0,-24.06 -5.4,-47.78 -16.06,-70.5 -8.82,-18.81 -13.68,-38.56 -13.68,-55.61 0,-10.62 1.92,-20.78 5.44,-30.19 4.21,2.72 9.5,5.96 19.16,5.96 9.96,0 15.28,-3.44 19.55,-6.2 3.55,-2.29 5.89,-3.8 11.42,-3.8 5.52,0 7.86,1.51 11.41,3.8 4.27,2.76 9.59,6.2 19.54,6.2 9.96,0 15.28,-3.44 19.55,-6.2 3.55,-2.29 5.89,-3.8 11.41,-3.8 5.53,0 7.87,1.51 11.42,3.8 4.27,2.76 9.59,6.2 19.55,6.2 9.67,0 14.97,-3.25 19.18,-5.97 3.52,9.41 5.44,19.58 5.44,30.2 0,17.05 -4.85,36.8 -13.68,55.61 -10.65,22.72 -16.06,46.44 -16.06,70.5 l 0,61.44 c 0,7.26 3.02,14.29 8.28,19.3 5.33,5.09 12.33,7.68 19.7,7.33 14.21,-0.69 25.34,-12.63 25.34,-27.18 l 0,-23.36 c 0,-2.32 0.91,-4.5 2.57,-6.12 1.66,-1.63 3.84,-2.51 6.17,-2.46 4.64,0.09 8.41,4.18 8.41,9.11 z m -63.61,-119.65 c 0,-15.48 -12.6,-28.07 -28.08,-28.07 -15.48,0 -28.07,12.59 -28.07,28.07 0,15.48 12.59,28.07 28.07,28.07 15.48,0 28.08,-12.59 28.08,-28.07 z m -71.15,0 c 0,-15.48 -12.6,-28.07 -28.08,-28.07 -15.48,0 -28.07,12.59 -28.07,28.07 0,15.48 12.59,28.07 28.07,28.07 15.48,0 28.08,-12.59 28.08,-28.07 z"
           style="fill:#77ce6f" /><path
           id="path3972"
           d="m 441.232,53.168 c 4.14,0 7.5,3.36 7.5,7.5 0,4.14 -3.36,7.5 -7.5,7.5 -5.53,0 -7.88,1.51 -11.42,3.8 -4.28,2.76 -9.6,6.2 -19.55,6.2 -9.96,0 -15.28,-3.44 -19.56,-6.2 -3.54,-2.29 -5.88,-3.8 -11.41,-3.8 -5.53,0 -7.87,1.51 -11.41,3.8 -4.28,2.76 -9.6,6.2 -19.55,6.2 -9.96,0 -15.28,-3.44 -19.56,-6.2 -2.88,-1.87 -4.97,-3.22 -8.64,-3.65 3.81,10.66 5.89,22.13 5.89,34.08 0,19.21 -5.36,41.22 -15.09,61.98 -9.72,20.71 -14.65,42.29 -14.65,64.13 l 0,61.44 c 0,3.22 1.29,6.22 3.63,8.44 2.33,2.23 5.39,3.37 8.62,3.21 6.1,-0.3 11.07,-5.77 11.07,-12.2 l 0,-23.36 c 0,-6.38 2.51,-12.36 7.06,-16.83 4.56,-4.47 10.59,-6.86 16.97,-6.74 12.74,0.24 23.12,11.05 23.12,24.1 l 0,23.38 c 0,15.95 -6.3,30.89 -17.74,42.06 -11.1,10.83 -25.62,16.75 -41.05,16.75 -0.48,0 -0.96,-0.01 -1.44,-0.02 -16.77,-0.4 -31.88,-8.11 -42.39,-20.08 l 0,60.1 c 0,6.43 4.96,11.9 11.06,12.2 3.22,0.15 6.3,-0.98 8.64,-3.21 2.33,-2.22 3.62,-5.22 3.62,-8.44 l 0,-10.59 c 0,-13.07 10.39,-23.88 23.15,-24.1 6.35,-0.1 12.39,2.28 16.94,6.74 4.55,4.47 7.06,10.44 7.06,16.82 l 0,10.17 c 0,32.19 -25.75,59 -57.39,59.76 -0.48,0.01 -0.96,0.01 -1.43,0.01 -15.43,0 -29.96,-5.91 -41.05,-16.75 -4.2,-4.09 -7.7,-8.7 -10.45,-13.67 -9.94,17.68 -28.48,29.89 -49.69,30.4 -0.47,0.01 -0.95,0.02 -1.43,0.02 -15.43,0 -29.96,-5.92 -41.05,-16.75 -11.44,-11.17 -17.74,-26.11 -17.74,-42.06 l 0,-10.6 c 0,-13.06 10.38,-23.87 23.14,-24.1 6.39,-0.09 12.4,2.28 16.95,6.75 4.55,4.47 7.06,10.44 7.06,16.81 l 0,10.59 c 0,6.42 4.96,11.89 11.06,12.19 3.23,0.16 6.3,-0.98 8.63,-3.2 2.34,-2.23 3.63,-5.23 3.63,-8.44 l 0,-60.18 c -0.88,0.98 -1.79,1.95 -2.74,2.88 -11.44,11.17 -26.52,17.11 -42.48,16.73 -31.65,-0.75 -57.39,-27.55 -57.39,-59.75 l 0,-22.95 c 0,-6.38 2.51,-12.36 7.06,-16.83 4.56,-4.47 10.58,-6.87 16.96,-6.74 12.75,0.24 23.12,11.05 23.12,24.1 l 0,23.38 c 0,3.22 1.29,6.22 3.63,8.44 2.33,2.23 5.4,3.37 8.62,3.21 6.11,-0.3 11.07,-5.77 11.07,-12.2 l 0,-60.89 c 0,-21.84 -4.92,-43.42 -14.64,-64.13 -9.74,-20.76 -15.1,-42.77 -15.1,-61.98 0,-11.95 2.08,-23.43 5.89,-34.08 -3.68,0.43 -5.77,1.78 -8.66,3.65 -4.28,2.76 -9.6,6.2 -19.55,6.2 -9.95,0 -15.27,-3.44 -19.55,-6.2 -3.54,-2.29 -5.88,-3.8 -11.41,-3.8 -5.53,0 -7.87,1.51 -11.41,3.8 -4.28,2.76 -9.6,6.2 -19.55,6.2 -9.95,0 -15.28,-3.44 -19.55,-6.2 -3.54,-2.29 -5.88,-3.8 -11.41,-3.8 -4.14,0 -7.5,-3.36 -7.5,-7.5 0,-4.14 3.36,-7.5 7.5,-7.5 9.95,0 15.27,3.44 19.55,6.2 3.54,2.29 5.88,3.8 11.41,3.8 5.53,0 7.87,-1.51 11.41,-3.8 4.28,-2.76 9.6,-6.2 19.55,-6.2 9.95,0 15.27,3.44 19.55,6.2 3.54,2.29 5.88,3.8 11.41,3.8 5.53,0 7.87,-1.51 11.41,-3.8 4.28,-2.76 9.6,-6.2 19.55,-6.2 1.43,0 2.75,0.08 4,0.2 17.33,-31.28 50.68,-52.51 88.9,-52.51 38.22,0 71.57,21.23 88.89,52.51 1.24,-0.13 2.56,-0.2 3.98,-0.2 9.95,0 15.28,3.43 19.55,6.2 3.55,2.29 5.89,3.8 11.42,3.8 5.52,0 7.87,-1.51 11.41,-3.8 4.27,-2.77 9.6,-6.2 19.55,-6.2 9.95,0 15.28,3.43 19.55,6.2 3.55,2.29 5.89,3.8 11.42,3.8 5.53,0 7.87,-1.51 11.41,-3.8 4.28,-2.77 9.6,-6.2 19.56,-6.2 z m -89.48,236.78 0,-23.38 c 0,-4.93 -3.77,-9.02 -8.41,-9.11 -2.33,-0.05 -4.51,0.83 -6.17,2.46 -1.66,1.62 -2.57,3.8 -2.57,6.12 l 0,23.36 c 0,14.55 -11.13,26.49 -25.34,27.18 -7.37,0.35 -14.37,-2.24 -19.7,-7.33 -5.26,-5.01 -8.28,-12.04 -8.28,-19.3 l 0,-61.44 c 0,-24.06 5.41,-47.78 16.06,-70.5 8.83,-18.81 13.68,-38.56 13.68,-55.61 0,-10.62 -1.92,-20.79 -5.44,-30.2 -4.21,2.72 -9.51,5.97 -19.18,5.97 -9.96,0 -15.28,-3.44 -19.55,-6.2 -3.55,-2.29 -5.89,-3.8 -11.42,-3.8 -5.52,0 -7.86,1.51 -11.41,3.8 -4.27,2.76 -9.59,6.2 -19.55,6.2 -9.95,0 -15.27,-3.44 -19.54,-6.2 -3.55,-2.29 -5.89,-3.8 -11.41,-3.8 -5.53,0 -7.87,1.51 -11.42,3.8 -4.27,2.76 -9.59,6.2 -19.55,6.2 -9.66,0 -14.95,-3.24 -19.16,-5.96 -3.52,9.41 -5.44,19.57 -5.44,30.19 0,17.05 4.86,36.8 13.68,55.61 10.66,22.72 16.06,46.44 16.06,70.5 l 0,60.89 c 0,14.55 -11.13,26.49 -25.34,27.18 -7.37,0.35 -14.36,-2.24 -19.7,-7.33 -5.26,-5.01 -8.28,-12.04 -8.28,-19.3 l 0,-23.38 c 0,-4.93 -3.77,-9.02 -8.4,-9.11 -2.33,-0.04 -4.51,0.83 -6.17,2.46 -1.66,1.62 -2.57,3.8 -2.57,6.12 l 0,22.95 c 0,24.12 19.17,44.2 42.74,44.76 11.89,0.3 23.13,-4.15 31.65,-12.47 8.52,-8.33 13.22,-19.45 13.22,-31.33 l 0,-72.28 c 0,-4.14 3.36,-7.5 7.5,-7.5 4.14,0 7.5,3.36 7.5,7.5 l 0,171.64 c 0,7.25 -3.02,14.29 -8.28,19.3 -5.34,5.08 -12.34,7.69 -19.71,7.32 -14.2,-0.69 -25.33,-12.63 -25.33,-27.17 l 0,-10.59 c 0,-2.31 -0.91,-4.48 -2.56,-6.1 -1.66,-1.63 -3.86,-2.49 -6.18,-2.46 -4.64,0.08 -8.41,4.17 -8.41,9.1 l 0,10.6 c 0,11.88 4.7,23 13.22,31.33 8.52,8.32 19.77,12.73 31.65,12.46 23.56,-0.56 42.73,-20.62 42.75,-44.72 l 0,-161.37 c 0,-4.14 3.35,-7.5 7.5,-7.5 4.14,0 7.5,3.36 7.5,7.5 l 0,162.3 c 0,11.88 4.69,23.01 13.22,31.33 8.51,8.32 19.75,12.75 31.64,12.47 23.57,-0.56 42.75,-20.64 42.75,-44.76 l 0,-10.17 c 0,-2.32 -0.91,-4.49 -2.57,-6.11 -1.65,-1.63 -3.82,-2.48 -6.16,-2.45 -4.65,0.08 -8.42,4.16 -8.42,9.1 l 0,10.59 c 0,7.26 -3.02,14.29 -8.28,19.31 -5.34,5.08 -12.33,7.68 -19.71,7.32 -14.2,-0.69 -25.33,-12.63 -25.33,-27.18 l 0,-171.09 c 0,-4.14 3.36,-7.5 7.5,-7.5 4.15,0 7.5,3.36 7.5,7.5 l 0,71.32 c 0,24.12 19.18,44.2 42.75,44.76 11.87,0.29 23.12,-4.15 31.65,-12.47 8.52,-8.33 13.22,-19.45 13.22,-31.33 z m -53.94,-230.58 c 0.41,-0.27 0.83,-0.54 1.26,-0.81 -15.06,-25.53 -42.85,-42.7 -74.58,-42.7 -31.74,0 -59.53,17.17 -74.59,42.71 0.42,0.27 0.84,0.54 1.24,0.8 3.54,2.29 5.88,3.8 11.41,3.8 5.53,0 7.87,-1.51 11.42,-3.8 4.27,-2.77 9.59,-6.2 19.55,-6.2 9.95,0 15.27,3.44 19.55,6.2 3.54,2.29 5.88,3.8 11.4,3.8 5.53,0 7.87,-1.51 11.41,-3.8 4.28,-2.76 9.6,-6.2 19.55,-6.2 9.96,0 15.28,3.43 19.55,6.2 3.55,2.29 5.89,3.8 11.42,3.8 5.53,0 7.87,-1.51 11.41,-3.8 z"
           style="fill:#4d4d4d" /><path
           id="path3974"
           d="m 260.062,118.848 c 15.48,0 28.08,12.59 28.08,28.07 0,15.48 -12.6,28.07 -28.08,28.07 -15.48,0 -28.07,-12.59 -28.07,-28.07 0,-15.48 12.59,-28.07 28.07,-28.07 z m 13.08,28.07 c 0,-7.21 -5.87,-13.07 -13.08,-13.07 -7.21,0 -13.07,5.86 -13.07,13.07 0,7.21 5.86,13.07 13.07,13.07 7.21,0 13.08,-5.86 13.08,-13.07 z"
           style="fill:#4d4d4d" /><path
           id="path3976"
           d="m 188.912,118.848 c 15.48,0 28.08,12.59 28.08,28.07 0,15.48 -12.6,28.07 -28.08,28.07 -15.48,0 -28.07,-12.59 -28.07,-28.07 0,-15.48 12.59,-28.07 28.07,-28.07 z m 13.08,28.07 c 0,-7.21 -5.87,-13.07 -13.08,-13.07 -7.21,0 -13.07,5.86 -13.07,13.07 0,7.21 5.86,13.07 13.07,13.07 7.21,0 13.08,-5.86 13.08,-13.07 z"
           style="fill:#4d4d4d" /></g><g
         id="g3978" /></g></g><g
     transform="translate(0,67.3467)"
     id="g3980" /><g
     transform="translate(0,67.3467)"
     id="g3982" /><g
     transform="translate(0,67.3467)"
     id="g3984" /><g
     transform="translate(0,67.3467)"
     id="g3986" /><g
     transform="translate(0,67.3467)"
     id="g3988" /><g
     transform="translate(0,67.3467)"
     id="g3990" /><g
     transform="translate(0,67.3467)"
     id="g3992" /><g
     transform="translate(0,67.3467)"
     id="g3994" /><g
     transform="translate(0,67.3467)"
     id="g3996" /><g
     transform="translate(0,67.3467)"
     id="g3998" /><g
     transform="translate(0,67.3467)"
     id="g4000" /><g
     transform="translate(0,67.3467)"
     id="g4002" /><g
     transform="translate(0,67.3467)"
     id="g4004" /><g
     transform="translate(0,67.3467)"
     id="g4006" /><g
     transform="translate(0,67.3467)"
     id="g4008" /></svg>